#N canvas 624 197 718 717 10;
#X obj 293 225 abl_link~;
#X obj 96 94 tgl 15 0 empty empty empty 17 7 0 10 -262144 -1 -1 1 1
;
#X msg 96 114 connect \$1;
#X msg 393 119 tempo \$1;
#X msg 182 120 resolution \$1;
#X msg 285 140 reset \$1 \$2;
#X obj 285 119 pack f f;
#X floatatom 422 45 5 0 0 2 tempo - -, f 5;
#X floatatom 330 100 5 0 0 2 quantum - -, f 5;
#X floatatom 285 100 5 0 0 2 beat - -, f 5;
#X floatatom 182 100 5 0 0 2 resolution - -, f 5;
#X floatatom 320 284 5 0 0 1 beat_time - -, f 5;
#X floatatom 233 283 5 0 0 1 phase - -, f 5;
#X msg 37 278 \; pd dsp 1;
#X floatatom 146 284 5 0 0 1 step - -, f 5;
#X floatatom 393 439 5 0 0 1 tempo - -, f 5;
#X floatatom 50 439 5 0 0 0 - - -, f 5;
#X obj 50 417 r #abl_link_num_peers;
#X floatatom 320 358 5 0 0 0 - - -, f 5;
#X obj 320 307 div;
#X obj 275 490 print haha;
#X obj 320 331 change;
#X obj 275 455 pack 0 0;
#X obj 510 290 midiout;
#X obj 412 86 div;
#X obj 432 682 noteout;
#X obj 582 486 div;
#X floatatom 609 459 5 0 0 0 - - -, f 5;
#X obj 621 502 mod;
#X obj 405 620 makenote 64 250;
#X floatatom 450 573 5 0 0 0 - - -, f 5;
#X floatatom 507 573 5 0 0 0 - - -, f 5;
#X floatatom 538 607 5 0 0 0 - - -, f 5;
#X obj 295 531 trigger bang;
#X connect 0 0 14 0;
#X connect 0 1 12 0;
#X connect 0 2 11 0;
#X connect 0 3 15 0;
#X connect 1 0 2 0;
#X connect 2 0 0 0;
#X connect 3 0 0 0;
#X connect 4 0 0 0;
#X connect 5 0 0 0;
#X connect 6 0 5 0;
#X connect 7 0 24 0;
#X connect 8 0 6 1;
#X connect 9 0 6 0;
#X connect 10 0 4 0;
#X connect 11 0 19 0;
#X connect 15 0 22 1;
#X connect 15 0 26 0;
#X connect 15 0 28 0;
#X connect 17 0 16 0;
#X connect 18 0 22 0;
#X connect 18 0 33 0;
#X connect 19 0 21 0;
#X connect 21 0 18 0;
#X connect 22 0 20 0;
#X connect 24 0 3 0;
#X connect 26 0 30 0;
#X connect 27 0 26 1;
#X connect 27 0 28 1;
#X connect 28 0 31 0;
#X connect 29 0 25 0;
#X connect 29 1 25 1;
#X connect 30 0 29 0;
#X connect 31 0 29 1;
#X connect 32 0 29 2;
#X connect 33 0 30 0;
